<?xml version="1.0" standalone="no"?>
<!DOCTYPE svg PUBLIC "-//W3C//DTD SVG 20010904//EN"
 "http://www.w3.org/TR/2001/REC-SVG-20010904/DTD/svg10.dtd">
<svg version="1.0" xmlns="http://www.w3.org/2000/svg"
 width="512.000000pt" height="512.000000pt" viewBox="0 0 512.000000 512.000000"
 preserveAspectRatio="xMidYMid meet">

<g transform="translate(0.000000,512.000000) scale(0.100000,-0.100000)"
fill="#000000" stroke="none">
<path d="M2375 4984 c-16 -2 -73 -9 -125 -15 -230 -25 -506 -108 -735 -218
-266 -128 -460 -266 -670 -476 -211 -210 -348 -404 -476 -670 -108 -224 -176
-443 -215 -697 -22 -141 -25 -516 -6 -658 62 -443 240 -861 518 -1211 74 -95
278 -299 373 -373 278 -221 605 -382 941 -465 214 -52 330 -66 580 -66 165 0
256 5 340 18 424 65 792 220 1137 479 126 94 357 325 451 451 258 344 414 713
479 1137 24 160 25 519 0 680 -108 701 -484 1294 -1070 1687 -131 88 -390 217
-533 267 -134 46 -324 92 -454 112 -100 14 -471 27 -535 18z m386 -696 c175
-87 269 -240 269 -439 0 -175 -70 -1645 -80 -1688 -49 -200 -253 -337 -451
-302 -161 28 -286 141 -328 297 -11 42 -81 1493 -81 1679 0 55 6 123 14 151
39 147 153 268 308 325 43 16 74 19 164 17 104 -3 114 -5 185 -40z m-78 -2698
c110 -34 202 -117 256 -230 23 -49 26 -67 26 -161 0 -101 -1 -108 -38 -181
-43 -88 -107 -152 -195 -195 -52 -26 -66 -28 -172 -28 -106 0 -120 2 -172 28
-88 43 -152 107 -195 193 -31 64 -37 88 -41 158 -5 103 13 171 68 254 100 150
289 216 463 162z"/>
</g>
</svg>
