<svg width="31" height="30" viewBox="0 0 31 30" fill="none" xmlns="http://www.w3.org/2000/svg">
<path fill-rule="evenodd" clip-rule="evenodd" d="M30.1859 15.3411C30.1859 14.2775 30.0879 13.2548 29.9059 12.2729H15.4009V18.0752H23.6895C23.3324 19.9502 22.2474 21.5389 20.6162 22.6025V26.3661H25.5936C28.5058 23.7548 30.1859 19.9093 30.1859 15.3411Z" fill="#4285F4"/>
<path fill-rule="evenodd" clip-rule="evenodd" d="M15.4007 30.0001C19.5589 30.0001 23.0452 28.6569 25.5934 26.366L20.616 22.6024C19.2369 23.5024 17.4728 24.0342 15.4007 24.0342C11.3894 24.0342 7.99414 21.3956 6.78305 17.8501H1.6377V21.7365C4.17187 26.6387 9.38023 30.0001 15.4007 30.0001Z" fill="#34A853"/>
<path fill-rule="evenodd" clip-rule="evenodd" d="M6.78347 17.85C6.47545 16.95 6.30044 15.9887 6.30044 15C6.30044 14.0114 6.47545 13.05 6.78347 12.15V8.26367H1.63811C0.595041 10.2887 0 12.5796 0 15C0 17.4205 0.595041 19.7114 1.63811 21.7364L6.78347 17.85Z" fill="#FBBC05"/>
<path fill-rule="evenodd" clip-rule="evenodd" d="M15.4007 5.96591C17.6618 5.96591 19.6919 6.72273 21.2881 8.20909L25.7054 3.90682C23.0382 1.48636 19.5519 0 15.4007 0C9.38023 0 4.17187 3.36136 1.6377 8.26364L6.78305 12.15C7.99414 8.60454 11.3894 5.96591 15.4007 5.96591Z" fill="#EA4335"/>
</svg>
